<svg width="400" height="400" viewBox="0 0 400 400" fill="none" xmlns="http://www.w3.org/2000/svg">
<rect width="400" height="400" fill="#F5F5F5"/>
<rect width="400" height="400" fill="#1E5FC2"/>
<path d="M37.6 384V197.632L200.16 245.504L362.464 197.632V384H273.888V347.648H295.648V260.096L233.44 277.76V384H166.624V277.76L104.416 260.096V347.648H126.176V384H37.6Z" fill="black"/>
<path d="M37.6 384H29.6V392H37.6V384ZM37.6 197.632L39.8599 189.958L29.6 186.936V197.632H37.6ZM200.16 245.504L197.9 253.178L200.162 253.844L202.423 253.177L200.16 245.504ZM362.464 197.632H370.464V186.932L360.201 189.959L362.464 197.632ZM362.464 384V392H370.464V384H362.464ZM273.888 384H265.888V392H273.888V384ZM273.888 347.648V339.648H265.888V347.648H273.888ZM295.648 347.648V355.648H303.648V347.648H295.648ZM295.648 260.096H303.648V249.508L293.463 252.4L295.648 260.096ZM233.44 277.76L231.255 270.064L225.44 271.715V277.76H233.44ZM233.44 384V392H241.44V384H233.44ZM166.624 384H158.624V392H166.624V384ZM166.624 277.76H174.624V271.715L168.809 270.064L166.624 277.76ZM104.416 260.096L106.601 252.4L96.416 249.508V260.096H104.416ZM104.416 347.648H96.416V355.648H104.416V347.648ZM126.176 347.648H134.176V339.648H126.176V347.648ZM126.176 384V392H134.176V384H126.176ZM45.6 384V197.632H29.6V384H45.6ZM35.3401 205.306L197.9 253.178L202.42 237.83L39.8599 189.958L35.3401 205.306ZM202.423 253.177L364.727 205.305L360.201 189.959L197.897 237.831L202.423 253.177ZM354.464 197.632V384H370.464V197.632H354.464ZM362.464 376H273.888V392H362.464V376ZM281.888 384V347.648H265.888V384H281.888ZM273.888 355.648H295.648V339.648H273.888V355.648ZM303.648 347.648V260.096H287.648V347.648H303.648ZM293.463 252.4L231.255 270.064L235.625 285.456L297.833 267.792L293.463 252.4ZM225.44 277.76V384H241.44V277.76H225.44ZM233.44 376H166.624V392H233.44V376ZM174.624 384V277.76H158.624V384H174.624ZM168.809 270.064L106.601 252.4L102.231 267.792L164.439 285.456L168.809 270.064ZM96.416 260.096V347.648H112.416V260.096H96.416ZM104.416 355.648H126.176V339.648H104.416V355.648ZM118.176 347.648V384H134.176V347.648H118.176ZM126.176 376H37.6V392H126.176V376Z" fill="white"/>
<path d="M68.415 196V137.12L135.231 146.848V159.648H264.767V137.12L68.415 106.144V16.8H331.583V79.008L264.767 68.768V53.152H135.231V77.472L331.583 108.448V196H68.415Z" fill="black"/>
<path d="M68.415 196H60.415V204H68.415V196ZM68.415 137.12L69.5676 129.203L60.415 127.871V137.12H68.415ZM135.231 146.848H143.231V139.928L136.384 138.931L135.231 146.848ZM135.231 159.648H127.231V167.648H135.231V159.648ZM264.767 159.648V167.648H272.767V159.648H264.767ZM264.767 137.12H272.767V130.283L266.014 129.218L264.767 137.12ZM68.415 106.144H60.415V112.981L67.1684 114.046L68.415 106.144ZM68.415 16.8V8.79999H60.415V16.8H68.415ZM331.583 16.8H339.583V8.79999H331.583V16.8ZM331.583 79.008L330.371 86.9157L339.583 88.3275V79.008H331.583ZM264.767 68.768H256.767V75.6353L263.555 76.6757L264.767 68.768ZM264.767 53.152H272.767V45.152H264.767V53.152ZM135.231 53.152V45.152H127.231V53.152H135.231ZM135.231 77.472H127.231V84.3089L133.984 85.3743L135.231 77.472ZM331.583 108.448H339.583V101.611L332.83 100.546L331.583 108.448ZM331.583 196V204H339.583V196H331.583ZM76.415 196V137.12H60.415V196H76.415ZM67.2624 145.037L134.078 154.765L136.384 138.931L69.5676 129.203L67.2624 145.037ZM127.231 146.848V159.648H143.231V146.848H127.231ZM135.231 167.648H264.767V151.648H135.231V167.648ZM272.767 159.648V137.12H256.767V159.648H272.767ZM266.014 129.218L69.6616 98.2417L67.1684 114.046L263.52 145.022L266.014 129.218ZM76.415 106.144V16.8H60.415V106.144H76.415ZM68.415 24.8H331.583V8.79999H68.415V24.8ZM323.583 16.8V79.008H339.583V16.8H323.583ZM332.795 71.1003L265.979 60.8603L263.555 76.6757L330.371 86.9157L332.795 71.1003ZM272.767 68.768V53.152H256.767V68.768H272.767ZM264.767 45.152H135.231V61.152H264.767V45.152ZM127.231 53.152V77.472H143.231V53.152H127.231ZM133.984 85.3743L330.336 116.35L332.83 100.546L136.478 69.5697L133.984 85.3743ZM323.583 108.448V196H339.583V108.448H323.583ZM331.583 188H68.415V204H331.583V188Z" fill="white"/>
</svg>
